<?xml version="1.0" encoding="UTF-8"?>
<svg id="Layer_1" xmlns="http://www.w3.org/2000/svg" viewBox="0 0 586.54 360">
  <defs>
    <style>
      .cls-1 {
        fill: #3c6fb6;
      }

      .cls-2 {
        fill: #2e3192;
      }

      .cls-3 {
        fill: #15345b;
      }
    </style>
  </defs>
  <path class="cls-1" d="M134,295.05h-6.52c-65.03,0-117.93-52.55-117.93-117.14S62.45,60.76,127.48,60.76h70.94c18.23,0,33.01,14.78,33.01,33.01s-14.78,33.01-33.01,33.01h-70.94c-28.63,0-51.92,22.94-51.92,51.13s23.29,51.13,51.92,51.13h6.52c18.23,0,33.01,14.78,33.01,33.01s-14.78,33.01-33.01,33.01Z"/>
  <path class="cls-1" d="M385.47,160.19c-18.23,0-33.01-14.78-33.01-33.01,0-31.93-27.34-57.9-60.94-57.9-28.48,0-50.06,12.82-57.73,34.29-6.13,17.17-25.02,26.11-42.19,19.97-17.17-6.13-26.11-25.02-19.97-42.19C188.84,33.19,234.78,3.27,291.52,3.27c70,0,126.96,55.59,126.96,123.91,0,18.23-14.78,33.01-33.01,33.01Z"/>
  <path class="cls-1" d="M415.99,274.24c-.26,1.24-.58,2.48-1,3.7-4.44,13.34-11.12,25.38-19.62,35.78v.03c-2.09,2.56-4.3,5.04-6.63,7.42-21.84,22.45-52.97,35.57-87.75,35.57-66.44,0-120.49-55.58-120.49-123.92,0-18.22,14.76-33.01,33.01-33.01s33.01,14.79,33.01,33.01c0,31.93,24.43,57.91,54.48,57.91,25.16,0,44.36-12.57,51.36-33.62,5.76-17.3,24.45-26.64,41.75-20.89,16.08,5.36,25.27,21.84,21.89,38.02Z"/>
  <path class="cls-2" d="M388.74,321.16c2.32-2.38,4.54-4.86,6.63-7.42v-.03c8.5-10.4,15.18-22.45,19.62-35.78"/>
  <path class="cls-3" d="M415.99,274.24c-.26,1.24-.58,2.48-1,3.7-4.44,13.34-11.12,25.38-19.62,35.78v.03c-2.09,2.56-4.3,5.04-6.63,7.42,0,0-39.98-28.91-36.39-64.06.79-7.84,34.22-1,34.22-1,0,0,17.61,5.6,29.42,18.14Z"/>
  <path class="cls-1" d="M459.06,284.69h-73.59c-18.23,0-33.01-14.78-33.01-33.01s14.78-33.01,33.01-33.01h73.59c28.63,0,51.92-20.34,51.92-45.34,0-26.27-19.61-45.34-46.64-45.34-18.23,0-33.01-14.78-33.01-33.01s14.78-33.01,33.01-33.01c31.23,0,59.95,11.62,80.86,32.72,20.5,20.69,31.79,48.62,31.79,78.63,0,61.4-52.91,111.36-117.93,111.36Z"/>
</svg>